/* XPM */
static char * gpe_su_xpm[] = {
"32 32 348 2",
"  	c None",
". 	c #010101",
"+ 	c #7E7E7E",
"@ 	c #979797",
"# 	c #999999",
"$ 	c #8E8E8E",
"% 	c #4A4A4A",
"& 	c #000000",
"* 	c #1D1D1D",
"= 	c #787878",
"- 	c #E3E3E3",
"; 	c #EFEFEF",
"> 	c #EDEDED",
", 	c #E9E9E9",
"' 	c #E6E6E6",
") 	c #E0E0E0",
"! 	c #BEBEBE",
"~ 	c #323232",
"{ 	c #0C0C0C",
"] 	c #242424",
"^ 	c #9C9C9C",
"/ 	c #DCDCDC",
"( 	c #D0D0D0",
"_ 	c #CFCFCF",
": 	c #D7D7D7",
"< 	c #DFDFDF",
"[ 	c #DDDDDD",
"} 	c #B2B2B2",
"| 	c #5D5D5D",
"1 	c #ABABAB",
"2 	c #D9D9D9",
"3 	c #989898",
"4 	c #313131",
"5 	c #060606",
"6 	c #474747",
"7 	c #9F9F9F",
"8 	c #D8D8D8",
"9 	c #C0C0C0",
"0 	c #4F4F4F",
"a 	c #595959",
"b 	c #818181",
"c 	c #151515",
"d 	c #1F1F1F",
"e 	c #909090",
"f 	c #292929",
"g 	c #212121",
"h 	c #B0B0B0",
"i 	c #BABABA",
"j 	c #9A9A9A",
"k 	c #E2E2E2",
"l 	c #565656",
"m 	c #E1E1E1",
"n 	c #D5D5D5",
"o 	c #757575",
"p 	c #494949",
"q 	c #CCCCCC",
"r 	c #545454",
"s 	c #ECECEC",
"t 	c #C7C7C7",
"u 	c #4D4D4D",
"v 	c #AEAEAE",
"w 	c #E8E8E8",
"x 	c #C1C1C1",
"y 	c #424242",
"z 	c #A7A7A7",
"A 	c #DBDBDB",
"B 	c #B6B6B5",
"C 	c #4C2C15",
"D 	c #71543D",
"E 	c #8C674A",
"F 	c #C38B53",
"G 	c #C68A53",
"H 	c #8C6445",
"I 	c #72553F",
"J 	c #72553E",
"K 	c #72533B",
"L 	c #71533B",
"M 	c #71523B",
"N 	c #A17044",
"O 	c #C78B4E",
"P 	c #B67D45",
"Q 	c #6F4E34",
"R 	c #6D4B30",
"S 	c #512B0D",
"T 	c #71553E",
"U 	c #EBD4B4",
"V 	c #EBD1B2",
"W 	c #E2C59E",
"X 	c #DFBE95",
"Y 	c #DDBA90",
"Z 	c #DAB68B",
"` 	c #D8B383",
" .	c #D5AE7D",
"..	c #D3AC7A",
"+.	c #D4AC7A",
"@.	c #CFA877",
"#.	c #CDA472",
"$.	c #C99E68",
"%.	c #C8975E",
"&.	c #C58F55",
"*.	c #BA8345",
"=.	c #754312",
"-.	c #251105",
";.	c #765D4A",
">.	c #EDD6B9",
",.	c #E5C8A2",
"'.	c #DBB689",
").	c #D5AD7E",
"!.	c #D3A97A",
"~.	c #D0A671",
"{.	c #CBA26B",
"].	c #BD945F",
"^.	c #B78F5B",
"/.	c #B9915C",
"(.	c #C39961",
"_.	c #C69B63",
":.	c #C59A62",
"<.	c #C2965D",
"[.	c #C09156",
"}.	c #BD8B4C",
"|.	c #BB8341",
"1.	c #B67A38",
"2.	c #A96C26",
"3.	c #6E3F10",
"4.	c #210F05",
"5.	c #EED6BA",
"6.	c #E5C8A3",
"7.	c #DAB487",
"8.	c #D4AC7E",
"9.	c #D2AB79",
"0.	c #D0A570",
"a.	c #C29A66",
"b.	c #96764C",
"c.	c #5D492E",
"d.	c #3D301F",
"e.	c #7D623F",
"f.	c #C89E66",
"g.	c #C79D65",
"h.	c #C49961",
"i.	c #C2965C",
"j.	c #BE8E51",
"k.	c #BD8745",
"l.	c #B87E3A",
"m.	c #AC6F27",
"n.	c #6F4010",
"o.	c #765C4A",
"p.	c #EDD5B7",
"q.	c #E5C7A0",
"r.	c #DBB589",
"s.	c #D6AF7F",
"t.	c #D3AA7B",
"u.	c #D0A771",
"v.	c #A78458",
"w.	c #826846",
"x.	c #C9A06A",
"y.	c #BE8D50",
"z.	c #BB8543",
"A.	c #B77E39",
"B.	c #AB6F28",
"C.	c #6F3F10",
"D.	c #EDD4B6",
"E.	c #E4C59F",
"F.	c #D9B386",
"G.	c #D4AC7D",
"H.	c #D2A97A",
"I.	c #A88558",
"J.	c #070604",
"K.	c #51473A",
"L.	c #CFAA7A",
"M.	c #C1955D",
"N.	c #BE8E50",
"O.	c #BC8846",
"P.	c #B87D3A",
"Q.	c #AC6F28",
"R.	c #765C49",
"S.	c #ECD4B4",
"T.	c #E3C59E",
"U.	c #D8B284",
"V.	c #D2AA7A",
"W.	c #D1A674",
"X.	c #CCA36C",
"Y.	c #B18C5B",
"Z.	c #282014",
"`.	c #72614B",
" +	c #CBA677",
".+	c #C09155",
"++	c #BC8646",
"@+	c #B77F3C",
"#+	c #B37733",
"$+	c #A76B23",
"%+	c #6D3E10",
"&+	c #E5C7A1",
"*+	c #DBB588",
"=+	c #D7B080",
"-+	c #D5AC7B",
";+	c #CFA773",
">+	c #90724B",
",+	c #2A2115",
"'+	c #483E30",
")+	c #C7AE8D",
"!+	c #CBA371",
"~+	c #C1955A",
"{+	c #BF9054",
"]+	c #BC8849",
"^+	c #B8813E",
"/+	c #B47935",
"(+	c #A86D26",
"_+	c #EDD5B5",
":+	c #E2C49D",
"<+	c #D6B180",
"[+	c #D2A877",
"}+	c #D0A672",
"|+	c #CBA16B",
"1+	c #C69C65",
"2+	c #B58D58",
"3+	c #352919",
"4+	c #8C7D69",
"5+	c #C79D68",
"6+	c #C29861",
"7+	c #C09158",
"8+	c #BD8F53",
"9+	c #BB8848",
"0+	c #B9823F",
"a+	c #B37935",
"b+	c #AD712A",
"c+	c #6C3E10",
"d+	c #200F05",
"e+	c #E5C7A2",
"f+	c #D6AE7F",
"g+	c #D3AB7B",
"h+	c #CFA670",
"i+	c #CAA069",
"j+	c #A78455",
"k+	c #2E2417",
"l+	c #6B5C48",
"m+	c #CFAD80",
"n+	c #C2985F",
"o+	c #BF9155",
"p+	c #BD8D50",
"q+	c #BB8644",
"r+	c #B77F3B",
"s+	c #B17634",
"t+	c #6B3D10",
"u+	c #EBD3B3",
"v+	c #E2C19A",
"w+	c #D5AF80",
"x+	c #D1A876",
"y+	c #D0A670",
"z+	c #CAA068",
"A+	c #957447",
"B+	c #1F180E",
"C+	c #3F311F",
"D+	c #D2B58F",
"E+	c #C29761",
"F+	c #C19258",
"G+	c #BF9052",
"H+	c #BB8647",
"I+	c #B97F3D",
"J+	c #B37834",
"K+	c #BB8546",
"L+	c #6D3C10",
"M+	c #EBD2B2",
"N+	c #E2C098",
"O+	c #D4AE7B",
"P+	c #B88E59",
"Q+	c #806139",
"R+	c #151009",
"S+	c #2A2013",
"T+	c #B1946E",
"U+	c #C49B67",
"V+	c #BC884A",
"W+	c #BA823F",
"X+	c #B57C39",
"Y+	c #B17631",
"Z+	c #BE8B4C",
"`+	c #6C3B10",
" @	c #E1C39C",
".@	c #D6B082",
"+@	c #D2A978",
"@@	c #D0A872",
"#@	c #C19863",
"$@	c #7A5F3D",
"%@	c #423321",
"&@	c #A28157",
"*@	c #C59D69",
"=@	c #C19257",
"-@	c #BF9053",
";@	c #BC8647",
">@	c #B87F3C",
",@	c #B67C37",
"'@	c #C59358",
")@	c #6E3E10",
"!@	c #ECD3B3",
"~@	c #E2C39C",
"{@	c #D6AF81",
"]@	c #D2A776",
"^@	c #C69C64",
"/@	c #C2975D",
"(@	c #C2955B",
"_@	c #C0945A",
":@	c #C09359",
"<@	c #BD8D4D",
"[@	c #BB8443",
"}@	c #B77E3B",
"|@	c #B9813D",
"1@	c #C8975D",
"2@	c #6D3D10",
"3@	c #765B48",
"4@	c #EBD0AF",
"5@	c #E0C097",
"6@	c #D5AB7B",
"7@	c #CFA66F",
"8@	c #CBA26C",
"9@	c #C49960",
"0@	c #C1965C",
"a@	c #C2965E",
"b@	c #C3985F",
"c@	c #C49962",
"d@	c #C59B64",
"e@	c #C59960",
"f@	c #C4965D",
"g@	c #C3965A",
"h@	c #C49359",
"i@	c #C6975F",
"j@	c #BF8E4F",
"k@	c #6C4829",
"l@	c #CEA56F",
"m@	c #CBA36C",
"n@	c #C39054",
"o@	c #BF8A4A",
"p@	c #BC8648",
"q@	c #B88241",
"r@	c #B47F3D",
"s@	c #B27D39",
"t@	c #B17C38",
"u@	c #B47D3A",
"v@	c #B57E3C",
"w@	c #B5803E",
"x@	c #B57F3D",
"y@	c #B47C3B",
"z@	c #B27D3D",
"A@	c #B07938",
"B@	c #AB7332",
"C@	c #9F6421",
"D@	c #572F0D",
"E@	c #2F1607",
"F@	c #2F1507",
"G@	c #2E1507",
"                                                                ",
"                                                                ",
"                                                                ",
"                          . + @ # $ % &                         ",
"                      * = - ; > , ' ) ! ~ {                     ",
"                    ] ^ > , / ( _ : < [ } | &                   ",
"                  & 1 ; 2 3 4 5 & 6 7 8 : 9 0                   ",
"                  a > - b c         d e [ _ # f                 ",
"                g h ' i .               j k 9 l                 ",
"                | m n o &               p n q ^ &               ",
"                r s t u                   v 8 } &               ",
"                0 w x y                   z A B &               ",
"            C D E F G H I J K L L L K K M N O P Q R S           ",
"            T U V W X Y Z `  .......+...@.#.$.%.&.*.=.-.        ",
"            ;.>.,.'.).!.~.{.].^./.(._.:.<.[.}.|.1.2.3.4.        ",
"            ;.5.6.7.8.9.0.a.b.c.d.e.f.g.h.i.j.k.l.m.n.4.        ",
"            o.p.q.r.s.t.u.v.d.& & & w.x.h.<.y.z.A.B.C.4.        ",
"            o.D.E.F.G.H.0.I.J.& & & K.L.h.M.N.O.P.Q.C.4.        ",
"            R.S.T.U.V.W.X.Y.Z.& & & `. +.+N.++@+#+$+%+4.        ",
"            ;.>.&+*+=+-+;+X.>+,+J.'+)+!+~+{+]+^+/+(+C.4.        ",
"            R._+:+<+[+}+|+1+2+3+& 4+5+6+7+8+9+0+a+b+c+d+        ",
"            ;.>.e+r.f+g+h+i+j+k+& l+m+n+o+p+q+r+s+/+t+d+        ",
"            R.u+v+w+x+y+z+6+A+B+& C+D+E+F+G+H+I+J+K+L+4.        ",
"            R.M+N+O+y+X.g.P+Q+R+& S+T+U+p+V+W+X+Y+Z+`+4.        ",
"            R.S. @.@+@@@{.#@$@%@%@%@&@*@=@-@;@>@,@'@)@4.        ",
"            R.!@~@{@]@h+z+^@/@(@(@(@_@:@{+<@[@}@|@1@2@4.        ",
"            3@4@5@6@7@8@g.9@<.0@a@b@c@d@e@f@g@h@i@j@L+4.        ",
"            k@l@m@n@o@p@q@r@s@t@s@u@v@w@x@y@z@A@B@C@D@          ",
"              E@E@F@F@F@F@F@F@F@F@F@G@G@F@F@F@F@F@F@            ",
"                                                                ",
"                                                                ",
"                                                                "};
